<?xml version="1.0" encoding="UTF-8" standalone="no"?>
<!-- Created with Inkscape (http://www.inkscape.org/) -->

<svg
   width="210mm"
   height="297mm"
   viewBox="0 0 210 297"
   version="1.1"
   id="svg5"
   inkscape:version="1.2 (dc2aedaf03, 2022-05-15)"
   sodipodi:docname="logo.svg"
   inkscape:export-filename="logo_white.svg"
   inkscape:export-xdpi="96"
   inkscape:export-ydpi="96"
   xmlns:inkscape="http://www.inkscape.org/namespaces/inkscape"
   xmlns:sodipodi="http://sodipodi.sourceforge.net/DTD/sodipodi-0.dtd"
   xmlns="http://www.w3.org/2000/svg"
   xmlns:svg="http://www.w3.org/2000/svg">
  <sodipodi:namedview
     id="namedview7"
     pagecolor="#ffffff"
     bordercolor="#666666"
     borderopacity="1.0"
     inkscape:showpageshadow="2"
     inkscape:pageopacity="0.0"
     inkscape:pagecheckerboard="0"
     inkscape:deskcolor="#d1d1d1"
     inkscape:document-units="mm"
     showgrid="false"
     inkscape:zoom="0.4204826"
     inkscape:cx="288.95369"
     inkscape:cy="537.47765"
     inkscape:window-width="1920"
     inkscape:window-height="1027"
     inkscape:window-x="1912"
     inkscape:window-y="-8"
     inkscape:window-maximized="1"
     inkscape:current-layer="text2539-4"
     showguides="true" />
  <defs
     id="defs2">
    <rect
       x="301.01629"
       y="324.55946"
       width="85.764418"
       height="390.14402"
       id="rect2533" />
    <rect
       x="343.05767"
       y="349.78429"
       width="163.12056"
       height="381.73575"
       id="rect1747" />
  </defs>
  <g
     inkscape:label="Taso 1"
     inkscape:groupmode="layer"
     id="layer1">
    <g
       id="g2670"
       transform="matrix(1.2928602,0,0,1.2299369,-39.464448,-27.248134)"
       style="stroke:#ffffff;stroke-opacity:1">
      <g
         aria-label="RENKO"
         transform="scale(1.0682748,0.93608873)"
         id="text2539-4"
         style="font-size:36.5339px;letter-spacing:-13.7001px;word-spacing:0px;fill:none;stroke:#000000;stroke-width:0.953116">
        <g
           id="g1033"
           style="stroke:#ffffff;stroke-opacity:1;fill:none;fill-opacity:1">
          <rect
             style="stroke:#ffffff;stroke-opacity:1;fill:none;stroke-width:6.98804;stroke-linecap:round;stroke-miterlimit:10.3;stroke-dasharray:none;paint-order:fill markers stroke;fill-opacity:1"
             id="rect184"
             width="91.006241"
             height="160.41656"
             x="64.943565"
             y="58.612358"
             transform="scale(0.93608874,1.0682748)" />
          <g
             aria-label="FANNY"
             transform="scale(1.0156066,0.98463326)"
             id="text2539"
             style="stroke:#ffffff;stroke-opacity:1;font-size:37.1039px;letter-spacing:-13.9139px;word-spacing:0px;fill:none;stroke-width:0.967982;fill-opacity:1">
            <path
               style="color:#000000;-inkscape-font-specification:'sans-serif Bold';fill:none;stroke:#ffffff;stroke-opacity:1;fill-opacity:1"
               d="m 78.722656,74.28125 v 27.94531 h 7.888672 V 90.703125 H 98.115234 V 84.517578 H 86.611328 V 80.466797 H 99.021484 V 79.982422 74.28125 Z M 79.691406,75.25 H 98.054687 V 79.5 H 85.644531 v 5.986328 h 11.503906 v 4.25 H 85.644531 v 11.521482 h -5.953125 z"
               id="path856" />
            <path
               style="color:#000000;-inkscape-font-specification:'sans-serif Bold';fill:none;stroke:#ffffff;stroke-opacity:1;fill-opacity:1"
               d="m 83.490234,105.46094 -10.322265,27.94531 h 8.052734 l 1.865234,-5.45312 h 9.308594 l 1.865235,5.45312 h 8.234374 l -0.24023,-0.65234 -10.082035,-27.29297 z m 0.673828,0.96875 h 7.333985 l 9.607423,26.00781 h -6.152345 l -1.867188,-5.45312 H 82.394531 l -1.867187,5.45312 h -5.970703 z m 3.576172,4.92578 -3.992187,11.65039 h 7.984375 l -0.21875,-0.64063 z m 0,2.98242 2.638672,7.70117 h -5.277344 z"
               id="path858" />
            <path
               style="color:#000000;-inkscape-font-specification:'sans-serif Bold';fill:none;stroke:#ffffff;stroke-opacity:1;fill-opacity:1"
               d="m 75.082031,136.64062 v 27.94532 h 7.345703 v -17.29688 l 10.695313,17.29688 h 7.457033 v -0.48438 -27.46094 h -7.345705 v 14.2754 l -9.087891,-14.2754 z m 0.966797,0.96875 h 7.566406 l 10.587891,16.63086 v -16.63086 h 5.408203 v 26.00782 H 93.662109 L 81.458984,143.88281 v 19.73438 h -5.410156 z"
               id="path860" />
            <path
               style="color:#000000;-inkscape-font-specification:'sans-serif Bold';fill:none;stroke:#ffffff;stroke-opacity:1;fill-opacity:1"
               d="m 75.082031,167.82031 v 27.94531 h 7.345703 v -17.29687 l 10.695313,17.29687 h 7.457033 v -0.48437 -27.46094 h -7.345705 v 14.27539 l -9.087891,-14.27539 z m 0.966797,0.96875 h 7.566406 l 10.587891,16.63086 v -16.63086 h 5.408203 v 26.00781 H 93.662109 L 81.458984,175.0625 v 19.73437 h -5.410156 z"
               id="path862" />
            <path
               style="color:#000000;-inkscape-font-specification:'sans-serif Bold';fill:none;stroke:#ffffff;stroke-opacity:1;fill-opacity:1"
               d="m 73.470703,199 10.478516,17.48437 v 10.46094 H 91.875 V 216.16016 L 102.19336,199 h -0.85547 -7.935546 L 88.050781,208.91406 82.507812,199 Z m 1.708984,0.96875 h 6.759766 l 6.125,10.95508 5.916016,-10.95508 h 6.500001 l -9.57422,15.92187 v 10.08594 h -5.988281 v -9.75976 z"
               id="path864" />
          </g>
          <path
             style="color:#000000;-inkscape-font-specification:'sans-serif Bold';fill:none;stroke:#ffffff;stroke-opacity:1;fill-opacity:1"
             d="M 105.70313,73.138672 V 100.6543 h 7.76757 v -9.740238 h 2.44141 l 7.24219,9.740238 h 9.58203 l -0.59961,-0.769534 -8.54102,-10.964844 c 1.48572,-0.800304 2.71424,-1.755088 3.57032,-2.925781 l 0.002,-0.002 c 0.98641,-1.333392 1.46484,-3.044728 1.46484,-5.080078 0,-1.491557 -0.3115,-2.769757 -0.96289,-3.800781 -0.62237,-1.015253 -1.47326,-1.8463 -2.53125,-2.476562 l -0.002,-0.002 c -1.03727,-0.624482 -2.1573,-1.033058 -3.3457,-1.220703 -1.16338,-0.183691 -2.53518,-0.273437 -4.12305,-0.273437 z m 0.95312,0.953125 h 11.01172 c 1.55177,0 2.8784,0.08863 3.97461,0.261719 1.07033,0.169 2.06761,0.533629 3.0039,1.097656 h 0.002 v 0.002 c 0.93798,0.558321 1.66846,1.272523 2.21094,2.158203 l 0.002,0.002 0.002,0.0039 c 0.53631,0.847375 0.81641,1.934007 0.81641,3.294922 0,1.888137 -0.43529,3.375669 -1.2793,4.515625 l -0.002,0.002 c -0.85004,1.163204 -2.07875,2.145397 -3.71289,2.939454 l -0.5293,0.255859 8.62891,11.076172 h -7.15235 l -7.24218,-9.740235 h -3.87305 v 9.740235 h -5.86133 z m 5.86133,3.935547 v 8.107422 h 2.58203 c 1.10966,0 2.04396,-0.05417 2.81445,-0.166016 0.80167,-0.11637 1.5039,-0.388201 2.07617,-0.824219 l 0.002,-0.002 h 0.002 c 0.51968,-0.402755 0.91596,-0.860623 1.16797,-1.376953 v -0.002 c 0.27252,-0.545863 0.38867,-1.217279 0.38867,-2.013672 0,-0.731224 -0.15122,-1.390206 -0.47265,-1.949219 -0.33717,-0.586371 -0.90605,-1.026422 -1.64063,-1.328125 h -0.002 c -0.52294,-0.214541 -1.11519,-0.334958 -1.77539,-0.373047 -0.63291,-0.04846 -1.35871,-0.07227 -2.18555,-0.07227 z m 0.95312,0.953125 h 2.00391 c 0.81138,0 1.51875,0.02398 2.12109,0.07031 h 0.004 0.006 c 0.57662,0.03327 1.06408,0.138668 1.46875,0.304688 0.59738,0.245353 0.96784,0.55489 1.17773,0.919922 0.22563,0.39239 0.34571,0.87387 0.34571,1.474609 0,0.701322 -0.10826,1.23215 -0.28711,1.589844 l -0.002,0.002 -0.002,0.002 c -0.17622,0.362231 -0.46599,0.711285 -0.89648,1.044922 -0.4264,0.324322 -0.96077,0.539164 -1.63282,0.636719 -0.70416,0.102219 -1.59915,0.15625 -2.67773,0.15625 h -1.62891 z"
             id="path887" />
          <path
             style="color:#000000;-inkscape-font-specification:'sans-serif Bold';fill:none;stroke:#ffffff;stroke-opacity:1;fill-opacity:1"
             d="m 107.51367,103.83984 v 27.51563 h 20.16602 v -0.47656 -5.61328 h -12.39844 v -5.61329 h 11.50586 v -6.08984 h -11.50586 v -3.63086 h 12.39844 v -6.0918 z m 0.95313,0.95313 h 18.25976 v 4.18555 h -12.39843 v 5.53711 h 11.50585 v 4.18359 h -11.50585 v 7.51953 h 12.39843 v 4.18359 H 108.4668 Z"
             id="path889" />
          <path
             style="color:#000000;-inkscape-font-specification:'sans-serif Bold';fill:none;stroke:#ffffff;stroke-opacity:1;fill-opacity:1"
             d="m 104.52539,134.54102 v 27.51562 h 7.23242 v -17.0332 l 10.53321,17.0332 h 7.34179 v -0.47656 -27.03906 h -7.23242 v 14.05664 l -8.94922,-14.05664 z m 0.95313,0.95312 h 7.45117 l 10.42383,16.37695 v -16.37695 h 5.32617 v 25.60938 h -5.85742 l -12.01758,-19.43165 v 19.43165 h -5.32617 z"
             id="path891" />
          <path
             style="color:#000000;-inkscape-font-specification:'sans-serif Bold';fill:none;stroke:#ffffff;stroke-opacity:1;fill-opacity:1"
             d="m 105.9082,165.24219 v 27.51562 h 7.80274 v -8.99414 l 1.10937,-1.3457 7.71875,10.33984 h 9.60547 l -0.58594,-0.76758 -10.66601,-13.96679 10.79687,-12.78125 h -9.19531 l -8.7832,11.1289 v -11.1289 z m 0.95313,0.95312 h 5.89648 v 12.91992 l 10.19922,-12.91992 h 6.67774 l -9.96485,11.79883 10.54883,13.81055 h -7.20117 l -8.1582,-10.92774 -2.10157,2.54492 v 8.38282 h -5.89648 z"
             id="path893" />
          <path
             style="color:#000000;-inkscape-font-specification:'sans-serif Bold';fill:none;stroke:#ffffff;stroke-opacity:1;fill-opacity:1"
             d="m 117.07031,194.83594 c -4.36077,0 -7.85928,1.28689 -10.38281,3.87109 -2.52205,2.5715 -3.77539,6.08954 -3.77539,10.44922 0,4.32477 1.25358,7.83376 3.77344,10.42773 v 0.002 c 2.52368,2.58553 6.02287,3.87109 10.38476,3.87109 4.37354,0 7.87839,-1.28528 10.40235,-3.87109 v -0.002 c 2.51985,-2.59397 3.77343,-6.10296 3.77343,-10.42773 0,-4.36013 -1.25878,-7.87794 -3.79296,-10.44922 -2.53509,-2.58454 -6.03255,-3.87109 -10.38282,-3.87109 z m 0,0.95312 c 4.16479,0 7.36227,1.19941 9.70313,3.58594 2.34175,2.37602 3.51953,5.60254 3.51953,9.78125 0,4.14271 -1.17161,7.36277 -3.50391,9.76367 -2.32811,2.38454 -5.53029,3.58399 -9.71875,3.58399 -4.1763,0 -7.37279,-1.19917 -9.70117,-3.58399 -2.3323,-2.4009 -3.50391,-5.62096 -3.50391,-9.76367 0,-4.17915 1.17185,-7.40545 3.50196,-9.78125 2.32847,-2.38554 5.52619,-3.58594 9.70312,-3.58594 z m 0.0176,4.06055 c -0.92473,0 -1.80854,0.16599 -2.63867,0.49805 h -0.002 c -0.83626,0.33972 -1.59737,0.9005 -2.2793,1.6582 h -0.002 c -0.65391,0.73237 -1.16574,1.71409 -1.56055,2.93555 v 0.002 l -0.002,0.002 c -0.38695,1.22325 -0.57422,2.62703 -0.57422,4.21094 0,1.61754 0.18007,3.01344 0.55664,4.19336 l 0.002,0.004 v 0.002 c 0.38342,1.15024 0.89209,2.11032 1.53516,2.86914 0.63846,0.75339 1.39786,1.32095 2.26562,1.68359 0.85439,0.35707 1.75907,0.53711 2.69922,0.53711 0.94015,0 1.84482,-0.18005 2.69922,-0.53711 h 0.002 l 0.004,-0.002 c 0.86709,-0.37531 1.6262,-0.95574 2.26367,-1.7207 l 0.002,-0.002 c 0.70913,-0.86109 1.23308,-1.87239 1.57032,-3.02148 v -0.002 c 0.33704,-1.16091 0.5,-2.50061 0.5,-4.02149 0,-1.63035 -0.18641,-3.03493 -0.57618,-4.2168 -0.38309,-1.16163 -0.88995,-2.12204 -1.53515,-2.87109 l -0.002,-0.002 c -0.64935,-0.76329 -1.41561,-1.33073 -2.28516,-1.68164 -0.84112,-0.3441 -1.72674,-0.51758 -2.64258,-0.51758 z m 0,0.95312 c 0.7967,0 1.55255,0.14721 2.28125,0.44532 h 0.002 v 0.002 c 0.72217,0.29103 1.35726,0.75601 1.91993,1.41797 l 0.002,0.002 c 0.5433,0.63023 0.99959,1.47758 1.35351,2.55078 0.34758,1.05394 0.5293,2.36112 0.5293,3.91797 0,1.45225 -0.15773,2.70476 -0.46289,3.75586 -0.30497,1.03797 -0.76834,1.92796 -1.39062,2.68359 -0.55071,0.66022 -1.18162,1.13707 -1.90625,1.45118 -8.3e-4,3.6e-4 -0.001,0.002 -0.002,0.002 -0.73748,0.30733 -1.50834,0.46094 -2.32617,0.46094 -0.81994,0 -1.59282,-0.15397 -2.33203,-0.46289 -0.72584,-0.30333 -1.35546,-0.77 -1.90625,-1.41993 -0.54504,-0.64314 -1.00186,-1.49019 -1.35547,-2.54882 v -0.002 c -0.33665,-1.0556 -0.51172,-2.35722 -0.51172,-3.90234 0,-1.50815 0.18086,-2.81613 0.53125,-3.92383 0.36582,-1.13073 0.82708,-1.99087 1.36133,-2.58984 l 0.002,-0.002 c 0.60119,-0.66741 1.24341,-1.12973 1.92774,-1.4082 0.71537,-0.28588 1.4723,-0.42969 2.2832,-0.42969 z"
             id="path895" />
        </g>
      </g>
    </g>
  </g>
</svg>
